# xmcd
#
# Track frame offsets:
# 150
# 20165
# 44871
# 70832
# 90356
# 119068
# 140244
# 154325
# 179643
# 198865
# 215889
# 245039
# 263326
# 282000
#
# Disc length: 4111 seconds
#
#
# Revision: 0
# Processed by: cddbd v1.5.1PL2 Copyright (c) Steve Scherf et al.
# Submitted via: FreeRIP 2.945 
#
DISCID=e1100d0e
DTITLE=Various Artist - Platinum Series 8
DYEAR=1990
DGENRE=Acid
TTITLE0=Let It Whip - Dazz Band
TTITLE1=Burn Rubber - Gap band
TTITLE2=Party Train - Gap Band
TTITLE3=Freak-A-Zoid - Midnight Star
TTITLE4=Jam On It - Newcleus
TTITLE5=Give Up The Funk - Parliament
TTITLE6=The Roof Is On Fire - Rock Master Scott
TTITLE7=Let's Groove -  Earth, Wind, and Fire
TTITLE8=Love Shack - B-52's
TTITLE9=Groove Is In The Heart - Deee-Lite
TTITLE10=Strangelove - Depeche Mode
TTITLE11=Come On Eileen - Dexy's Midnight Runners
TTITLE12=I Melt With You - Modern English
TTITLE13=Situation - Yaz
EXTD=
EXTT0=
EXTT1=
EXTT2=
EXTT3=
EXTT4=
EXTT5=
EXTT6=
EXTT7=
EXTT8=
EXTT9=
EXTT10=
EXTT11=
EXTT12=
EXTT13=
PLAYORDER=
